{
	"asset":{
		"generator":"Khronos glTF Blender I/O v3.5.30",
		"version":"2.0"
	},
	"scene":0,
	"scenes":[
		{
			"name":"Scene",
			"nodes":[
				0
			]
		}
	],
	"nodes":[
		{
			"mesh":0,
			"name":"Suzanne",
			"rotation":[
				0,
				-1,
				0,
				7.549790126404332e-08
			]
		}
	],
	"meshes":[
		{
			"name":"Suzanne",
			"primitives":[
				{
					"attributes":{
						"POSITION":0,
						"TEXCOORD_0":1,
						"NORMAL":2
					},
					"indices":3
				}
			]
		}
	],
	"accessors":[
		{
			"bufferView":0,
			"componentType":5126,
			"count":556,
			"max":[
				0.7903076410293579,
				0.7946586012840271,
				1.0076647996902466
			],
			"min":[
				-0.7903076410293579,
				-0.34338444471359253,
				0.023167192935943604
			],
			"type":"VEC3"
		},
		{
			"bufferView":1,
			"componentType":5126,
			"count":556,
			"type":"VEC2"
		},
		{
			"bufferView":2,
			"componentType":5126,
			"count":556,
			"type":"VEC3"
		},
		{
			"bufferView":3,
			"componentType":5123,
			"count":2901,
			"type":"SCALAR"
		}
	],
	"bufferViews":[
		{
			"buffer":0,
			"byteLength":6672,
			"byteOffset":0,
			"target":34962
		},
		{
			"buffer":0,
			"byteLength":4448,
			"byteOffset":6672,
			"target":34962
		},
		{
			"buffer":0,
			"byteLength":6672,
			"byteOffset":11120,
			"target":34962
		},
		{
			"buffer":0,
			"byteLength":5802,
			"byteOffset":17792,
			"target":34963
		}
	],
	"buffers":[
		{
			"byteLength":23596,
			"uri":"data:application/octet-stream;base64,"
		}
	]
}
