{
	"asset":{
		"generator":"Khronos glTF Blender I/O v3.5.30",
		"version":"2.0"
	},
	"scene":0,
	"scenes":[
		{
			"name":"Scene",
			"nodes":[
				0
			]
		}
	],
	"nodes":[
		{
			"mesh":0,
			"name":"Torus",
			"rotation":[
				0.2842990458011627,
				-0.4295758903026581,
				-0.03216557577252388,
				0.8565070033073425
			],
			"scale":[
				0.8678333759307861,
				0.8678332567214966,
				0.8678333163261414
			],
			"translation":[
				0,
				0.08631359040737152,
				0
			]
		}
	],
	"meshes":[
		{
			"name":"Torus",
			"primitives":[
				{
					"attributes":{
						"POSITION":0,
						"TEXCOORD_0":1,
						"NORMAL":2
					},
					"indices":3
				}
			]
		}
	],
	"accessors":[
		{
			"bufferView":0,
			"componentType":5126,
			"count":2304,
			"max":[
				1.25,
				0.25,
				1.25
			],
			"min":[
				-1.25,
				-0.25,
				-1.25
			],
			"type":"VEC3"
		},
		{
			"bufferView":1,
			"componentType":5126,
			"count":2304,
			"type":"VEC2"
		},
		{
			"bufferView":2,
			"componentType":5126,
			"count":2304,
			"type":"VEC3"
		},
		{
			"bufferView":3,
			"componentType":5123,
			"count":3456,
			"type":"SCALAR"
		}
	],
	"bufferViews":[
		{
			"buffer":0,
			"byteLength":27648,
			"byteOffset":0,
			"target":34962
		},
		{
			"buffer":0,
			"byteLength":18432,
			"byteOffset":27648,
			"target":34962
		},
		{
			"buffer":0,
			"byteLength":27648,
			"byteOffset":46080,
			"target":34962
		},
		{
			"buffer":0,
			"byteLength":6912,
			"byteOffset":73728,
			"target":34963
		}
	],
	"buffers":[
		{
			"byteLength":80640,
			"uri":"data:application/octet-stream;base64,"
		}
	]
}
